<svg width="291" height="50" viewBox="0 0 291 50" fill="none" xmlns="http://www.w3.org/2000/svg">
<rect x="3" y="3" width="44" height="44" rx="9" stroke="white" stroke-width="6"/>
<mask id="path-2-inside-1_1_8" fill="white">
<path d="M25 1H39C44.5228 1 49 5.47715 49 11V25H28C26.3431 25 25 23.6569 25 22V1Z"/>
</mask>
<path d="M25 1H39C44.5228 1 49 5.47715 49 11V25H28C26.3431 25 25 23.6569 25 22V1Z" stroke="white" stroke-width="12" mask="url(#path-2-inside-1_1_8)"/>
<path d="M69.4533 15.2H59.7V9.83333H85.0867V15.2H75.2867V42.5H69.4533V15.2ZM92.7969 42.5H87.1969V9.83333H92.7969V42.5ZM98.6769 18.7467C100.419 18.7467 101.912 19.0733 103.157 19.7267C104.432 20.3489 105.475 21.1578 106.284 22.1533C107.092 23.1178 107.684 24.1756 108.057 25.3267C108.461 26.4778 108.664 27.5667 108.664 28.5933V42.5H103.064V28.7333C103.064 27.8933 102.924 27.1778 102.644 26.5867C102.364 25.9956 101.99 25.4978 101.524 25.0933C101.057 24.6889 100.512 24.3933 99.8902 24.2067C99.268 24.02 98.6147 23.9267 97.9302 23.9267C97.2458 23.9267 96.5924 24.02 95.9702 24.2067C95.348 24.3933 94.8035 24.6889 94.3369 25.0933C93.8702 25.4978 93.4969 25.9956 93.2169 26.5867C92.9369 27.1778 92.7969 27.8933 92.7969 28.7333V42.5H87.1969L89.0635 29.5267C89.2191 28.5311 89.4369 27.4111 89.7169 26.1667C90.028 24.8911 90.5258 23.7089 91.2102 22.62C91.9258 21.5311 92.8747 20.6133 94.0569 19.8667C95.2391 19.12 96.7791 18.7467 98.6769 18.7467ZM121.856 42.92C119.927 42.92 118.278 42.6089 116.909 41.9867C115.572 41.3333 114.467 40.5244 113.596 39.56C112.725 38.5644 112.087 37.4911 111.683 36.34C111.309 35.1889 111.123 34.1 111.123 33.0733V19.1667H116.723V32.9333C116.723 33.7733 116.863 34.4889 117.143 35.08C117.423 35.6711 117.796 36.1689 118.263 36.5733C118.729 36.9778 119.274 37.2733 119.896 37.46C120.518 37.6467 121.172 37.74 121.856 37.74C122.54 37.74 123.194 37.6467 123.816 37.46C124.438 37.2733 124.983 36.9778 125.449 36.5733C125.916 36.1689 126.289 35.6711 126.569 35.08C126.849 34.4889 126.989 33.7733 126.989 32.9333V19.1667H132.589V33.0733C132.589 34.1 132.387 35.1889 131.983 36.34C131.609 37.4911 130.987 38.5644 130.116 39.56C129.245 40.5244 128.125 41.3333 126.756 41.9867C125.418 42.6089 123.785 42.92 121.856 42.92ZM145.417 18.7467C147.346 18.7467 148.917 19.0733 150.131 19.7267C151.375 20.3489 152.355 21.1578 153.071 22.1533C153.817 23.1178 154.346 24.1756 154.657 25.3267C154.968 26.4778 155.155 27.5667 155.217 28.5933L156.151 42.5H150.551V28.7333C150.551 27.8933 150.411 27.1778 150.131 26.5867C149.851 25.9956 149.477 25.4978 149.011 25.0933C148.544 24.6889 147.999 24.3933 147.377 24.2067C146.755 24.02 146.102 23.9267 145.417 23.9267C144.733 23.9267 144.079 24.02 143.457 24.2067C142.835 24.3933 142.291 24.6889 141.824 25.0933C141.357 25.4978 140.984 25.9956 140.704 26.5867C140.424 27.1778 140.284 27.8933 140.284 28.7333V42.5H134.684V28.5933C134.684 27.5667 134.871 26.4778 135.244 25.3267C135.648 24.1756 136.286 23.1178 137.157 22.1533C138.028 21.1578 139.133 20.3489 140.471 19.7267C141.839 19.0733 143.488 18.7467 145.417 18.7467ZM161.284 18.7467C163.213 18.7467 164.846 19.0733 166.184 19.7267C167.553 20.3489 168.673 21.1578 169.544 22.1533C170.415 23.1178 171.037 24.1756 171.411 25.3267C171.815 26.4778 172.017 27.5667 172.017 28.5933V42.5H166.417V28.7333C166.417 27.8933 166.277 27.1778 165.997 26.5867C165.717 25.9956 165.344 25.4978 164.877 25.0933C164.411 24.6889 163.866 24.3933 163.244 24.2067C162.622 24.02 161.968 23.9267 161.284 23.9267C160.599 23.9267 159.946 24.02 159.324 24.2067C158.702 24.3933 158.157 24.6889 157.691 25.0933C157.224 25.4978 156.851 25.9956 156.571 26.5867C156.291 27.1778 156.151 27.8933 156.151 28.7333V42.5H150.551L151.484 28.5933C151.546 27.5667 151.733 26.4778 152.044 25.3267C152.355 24.1756 152.868 23.1178 153.584 22.1533C154.331 21.1578 155.311 20.3489 156.524 19.7267C157.768 19.0733 159.355 18.7467 161.284 18.7467ZM174.15 9.83333H179.75V21.4533C180.31 20.7378 181.181 20.1156 182.363 19.5867C183.546 19.0578 184.977 18.7933 186.657 18.7933C188.337 18.7933 189.892 19.0889 191.323 19.68C192.754 20.24 193.983 21.0489 195.01 22.1067C196.037 23.1644 196.83 24.44 197.39 25.9333C197.981 27.4267 198.277 29.0756 198.277 30.88C198.277 32.6844 197.981 34.3178 197.39 35.78C196.83 37.2422 196.021 38.5022 194.963 39.56C193.906 40.6178 192.646 41.4422 191.183 42.0333C189.752 42.5933 188.15 42.8733 186.377 42.8733C184.666 42.8733 183.063 42.6089 181.57 42.08C180.077 41.52 178.786 40.7267 177.697 39.7C176.608 38.6733 175.737 37.4133 175.083 35.92C174.461 34.4267 174.15 32.7467 174.15 30.88V9.83333ZM192.677 30.8333C192.677 28.6556 192.086 26.96 190.903 25.7467C189.752 24.5333 188.197 23.9267 186.237 23.9267C184.277 23.9267 182.706 24.5333 181.523 25.7467C180.341 26.96 179.75 28.6556 179.75 30.8333C179.75 33.0111 180.341 34.7067 181.523 35.92C182.706 37.1333 184.277 37.74 186.237 37.74C188.197 37.74 189.752 37.1333 190.903 35.92C192.086 34.7067 192.677 33.0111 192.677 30.8333ZM200.248 30.8333C200.248 29.0289 200.528 27.3956 201.088 25.9333C201.679 24.44 202.504 23.18 203.561 22.1533C204.619 21.0956 205.895 20.2867 207.388 19.7267C208.881 19.1356 210.53 18.84 212.335 18.84C214.139 18.84 215.772 19.1356 217.235 19.7267C218.728 20.2867 220.004 21.0956 221.061 22.1533C222.119 23.18 222.928 24.44 223.488 25.9333C224.079 27.3956 224.375 29.0289 224.375 30.8333C224.375 32.6378 224.079 34.2867 223.488 35.78C222.928 37.2733 222.119 38.5489 221.061 39.6067C220.004 40.6644 218.728 41.4889 217.235 42.08C215.772 42.64 214.139 42.92 212.335 42.92C210.53 42.92 208.881 42.64 207.388 42.08C205.895 41.4889 204.619 40.6644 203.561 39.6067C202.504 38.5489 201.679 37.2733 201.088 35.78C200.528 34.2867 200.248 32.6378 200.248 30.8333ZM205.848 30.88C205.848 33.0578 206.424 34.7533 207.575 35.9667C208.757 37.18 210.328 37.7867 212.288 37.7867C214.248 37.7867 215.819 37.18 217.001 35.9667C218.184 34.7533 218.775 33.0578 218.775 30.88C218.775 28.7022 218.184 27.0067 217.001 25.7933C215.819 24.58 214.248 23.9733 212.288 23.9733C210.328 23.9733 208.757 24.58 207.575 25.7933C206.424 27.0067 205.848 28.7022 205.848 30.88ZM238.309 18.84C240.113 18.84 241.762 19.1356 243.256 19.7267C244.749 20.2867 246.025 21.0956 247.082 22.1533C248.14 23.2111 248.949 24.4867 249.509 25.98C250.1 27.4733 250.396 29.1222 250.396 30.9267V42.5H244.796V40.26C244.236 40.9756 243.365 41.5978 242.182 42.1267C241.031 42.6556 239.6 42.92 237.889 42.92C236.209 42.92 234.653 42.64 233.222 42.08C231.791 41.4889 230.562 40.6644 229.536 39.6067C228.509 38.5489 227.7 37.2733 227.109 35.78C226.549 34.2867 226.269 32.6378 226.269 30.8333C226.269 29.0289 226.549 27.3956 227.109 25.9333C227.7 24.44 228.525 23.18 229.582 22.1533C230.64 21.0956 231.9 20.2867 233.362 19.7267C234.856 19.1356 236.505 18.84 238.309 18.84ZM244.796 30.88C244.796 28.7022 244.205 27.0067 243.022 25.7933C241.871 24.58 240.316 23.9733 238.356 23.9733C236.396 23.9733 234.825 24.58 233.642 25.7933C232.46 27.0067 231.869 28.7022 231.869 30.88C231.869 33.0578 232.46 34.7533 233.642 35.9667C234.825 37.18 236.396 37.7867 238.356 37.7867C240.316 37.7867 241.871 37.18 243.022 35.9667C244.205 34.7533 244.796 33.0578 244.796 30.88ZM253.173 29.4333C253.173 25.8867 254.216 23.2267 256.3 21.4533C258.385 19.6489 261.2 18.7467 264.747 18.7467V23.88C262.88 23.88 261.418 24.3467 260.36 25.28C259.302 26.1822 258.773 27.5667 258.773 29.4333V42.5H253.173V29.4333ZM289.179 9.83333V30.88C289.179 32.7467 288.853 34.4267 288.199 35.92C287.577 37.4133 286.722 38.6733 285.633 39.7C284.544 40.7267 283.253 41.52 281.759 42.08C280.266 42.6089 278.664 42.8733 276.953 42.8733C275.179 42.8733 273.562 42.5933 272.099 42.0333C270.668 41.4422 269.424 40.6178 268.366 39.56C267.308 38.5022 266.484 37.2422 265.893 35.78C265.333 34.3178 265.053 32.6844 265.053 30.88C265.053 29.0756 265.333 27.4267 265.893 25.9333C266.484 24.44 267.293 23.1644 268.319 22.1067C269.346 21.0489 270.575 20.24 272.006 19.68C273.437 19.0889 274.993 18.7933 276.673 18.7933C278.353 18.7933 279.784 19.0578 280.966 19.5867C282.148 20.1156 283.019 20.7378 283.579 21.4533V9.83333H289.179ZM270.653 30.8333C270.653 33.0111 271.228 34.7067 272.379 35.92C273.562 37.1333 275.133 37.74 277.093 37.74C279.053 37.74 280.624 37.1333 281.806 35.92C282.988 34.7067 283.579 33.0111 283.579 30.8333C283.579 28.6556 282.988 26.96 281.806 25.7467C280.624 24.5333 279.053 23.9267 277.093 23.9267C275.133 23.9267 273.562 24.5333 272.379 25.7467C271.228 26.96 270.653 28.6556 270.653 30.8333Z" fill="white"/>
</svg>
